<svg width="25" height="25" viewBox="0 0 25 25" xmlns="http://www.w3.org/2000/svg">
<path fill-rule="evenodd" clip-rule="evenodd" d="M0 12.5C0 5.59692 5.59692 0 12.5 0C19.4031 0 25 5.59692 25 12.5C25 19.4031 19.4031 25 12.5 25C5.59692 25 0 19.4031 0 12.5ZM14.3096 8.57068C14.3096 7.64307 13.5789 6.88879 12.6803 6.88879C11.7819 6.88879 11.0511 7.64307 11.0511 8.57068C11.0511 9.49536 11.7819 10.2496 12.6803 10.2496C13.5789 10.2496 14.3096 9.49536 14.3096 8.57068ZM16.6154 8.57068C16.6154 10.8083 14.8508 12.6299 12.6803 12.6299C10.5099 12.6299 8.74805 10.8083 8.74805 8.57068C8.74805 6.33008 10.5099 4.50854 12.6803 4.50854C14.8508 4.50854 16.6154 6.33008 16.6154 8.57068ZM16.5558 14.9655C15.844 15.4264 15.0728 15.7533 14.2716 15.9432L16.4719 18.2118C16.9211 18.6755 16.9211 19.4298 16.4719 19.8936C16.0199 20.3601 15.2919 20.3601 14.8427 19.8936L12.6803 17.6642L10.5208 19.8936C10.2933 20.1255 9.99841 20.2428 9.70337 20.2428C9.40845 20.2428 9.11609 20.1255 8.88879 19.8936C8.43958 19.4298 8.43958 18.6755 8.88879 18.2118L11.089 15.9432C10.288 15.7533 9.51672 15.4264 8.80493 14.9655C8.26636 14.6162 8.104 13.8815 8.44226 13.3256C8.78052 12.7668 9.49231 12.5991 10.0309 12.9512C11.6438 13.996 13.7168 13.996 15.3271 12.9512C15.8684 12.5991 16.5774 12.7668 16.9185 13.3256C17.2567 13.8815 17.0944 14.6162 16.5558 14.9655Z"/>
</svg>
