<svg xmlns="http://www.w3.org/2000/svg" xmlns:xlink="http://www.w3.org/1999/xlink"><symbol id="icon-close" viewBox="0 0 20 20"><g fill="none"><path d="M.293 18.291a1 1 0 1 0 1.414 1.414L10 11.413l8.292 8.292a1 1 0 1 0 1.414-1.414l-8.292-8.292 8.292-8.292A1 1 0 1 0 18.291.293L9.999 8.585 1.707.293A1 1 0 1 0 .293 1.707L8.585 10 .293 18.291z"/></g></symbol><symbol id="logo" viewBox="0 0 119 23"><g fill="none"><path d="M5.768 22.252c-1.176 0-2.196-.18-3.06-.54-.864-.36-1.524-.996-1.98-1.908-.432-.912-.648-2.196-.648-3.852v-1.224h3.528v1.512c0 1.008.096 1.788.288 2.34.192.552.456.936.792 1.152.336.192.72.288 1.152.288.696 0 1.248-.228 1.656-.684.432-.48.648-1.368.648-2.664 0-.96-.144-1.68-.432-2.16-.288-.48-.744-.864-1.368-1.152-.6-.312-1.38-.66-2.34-1.044a9.005 9.005 0 0 1-2.052-1.26A4.416 4.416 0 0 1 .656 9.22C.368 8.476.224 7.552.224 6.448c0-1.344.168-2.436.504-3.276a3.44 3.44 0 0 1 1.8-1.872C3.368.892 4.496.688 5.912.688c1.824 0 3.216.42 4.176 1.26.96.816 1.44 2.016 1.44 3.6v2.484H8.144V6.556c0-1.104-.18-1.896-.54-2.376-.336-.504-.888-.756-1.656-.756-.792 0-1.368.24-1.728.72-.336.456-.504 1.188-.504 2.196 0 .864.168 1.536.504 2.016.336.456.768.816 1.296 1.08.552.264 1.116.504 1.692.72 1.08.408 1.956.828 2.628 1.26a3.822 3.822 0 0 1 1.476 1.728c.312.72.468 1.74.468 3.06 0 1.512-.252 2.712-.756 3.6a4.18 4.18 0 0 1-2.088 1.872c-.888.384-1.944.576-3.168.576Zm15.148.18c-.816 0-1.572-.06-2.268-.18-.696-.12-1.296-.36-1.8-.72s-.9-.9-1.188-1.62c-.288-.72-.432-1.692-.432-2.916V.724h3.456v17.172c0 .648.096 1.152.288 1.512.216.336.492.564.828.684.336.12.708.18 1.116.18.408 0 .78-.06 1.116-.18.336-.12.6-.348.792-.684.216-.36.324-.864.324-1.512V.724h3.42V16.96c0 1.224-.144 2.208-.432 2.952-.264.72-.648 1.26-1.152 1.62-.504.36-1.104.6-1.8.72s-1.452.18-2.268.18ZM30.822 22V.724h7.2c1.344 0 2.376.3 3.096.9.72.6 1.08 1.488 1.08 2.664v3.78c0 .912-.12 1.764-.36 2.556a3.426 3.426 0 0 1-1.296 1.872c-.624.48-1.536.72-2.736.72h-3.384V22h-3.6Zm3.6-10.728h2.196c.72 0 1.26-.276 1.62-.828.36-.576.54-1.5.54-2.772V5.764c0-1.128-.156-1.932-.468-2.412-.312-.48-.744-.72-1.296-.72h-2.592v8.64ZM45.605 22V.724h9.576v2.448h-5.976v6.444h4.931v2.7h-4.931v7.308h5.976V22h-9.576Zm12.848 0V.724h7.344c1.344 0 2.376.3 3.096.9.744.6 1.116 1.488 1.116 2.664v3.384c0 1.176-.324 2.136-.972 2.88-.648.72-1.608 1.116-2.88 1.188.816.072 1.392.336 1.728.792.36.456.684 1.164.972 2.124L70.91 22h-3.816l-1.692-7.092a10.03 10.03 0 0 0-.576-1.584c-.216-.456-.564-.684-1.044-.684h-1.764V22h-3.564Zm3.564-11.772h2.304c.84 0 1.428-.216 1.764-.648.36-.432.54-1.092.54-1.98V4.9c0-.792-.168-1.368-.504-1.728-.312-.36-.804-.54-1.476-.54h-2.628v7.596Zm16.596 12.168A6.64 6.64 0 0 1 76.31 22c-.72-.24-1.308-.732-1.764-1.476-.432-.768-.648-1.908-.648-3.42V5.224c0-1.296.24-2.28.72-2.952.48-.696 1.152-1.164 2.016-1.404.864-.264 1.86-.396 2.988-.396s2.124.132 2.988.396c.864.264 1.536.744 2.016 1.44.504.672.756 1.644.756 2.916v2.88h-3.348V5.08c0-.72-.108-1.26-.324-1.62-.192-.36-.468-.6-.828-.72-.336-.12-.744-.18-1.224-.18-.432 0-.828.06-1.188.18s-.648.36-.864.72c-.192.36-.288.9-.288 1.62v12.78c0 .72.096 1.26.288 1.62.216.36.504.6.864.72s.756.18 1.188.18c.696 0 1.26-.204 1.692-.612.456-.432.684-1.068.684-1.908v-4.32H79.91v-1.98h5.472V22H82.79l-.18-1.8a4.891 4.891 0 0 1-.18.324c-.072.096-.132.18-.18.252-.288.432-.72.816-1.296 1.152-.552.312-1.332.468-2.34.468ZM91.911 22v-9.144L87.951.724h3.42l2.232 7.272.18 1.116L94 7.996 96.34.724h3.204l-4.176 12.312V22h-3.456Zm10.538 0V.724h4.248l3.564 15.12 3.6-15.12h4.212V22h-3.06V5.584L111.449 22h-2.376l-3.564-16.416V22h-3.06Z" fill="#fff"/></g></symbol><symbol id="ok" viewBox="0 0 25 25"><g fill="none"><path fill-rule="evenodd" clip-rule="evenodd" d="M0 12.5C0 5.597 5.597 0 12.5 0S25 5.597 25 12.5 19.403 25 12.5 25 0 19.403 0 12.5Zm14.31-3.93c0-.927-.731-1.681-1.63-1.681-.898 0-1.629.754-1.629 1.682 0 .924.73 1.679 1.63 1.679.898 0 1.629-.755 1.629-1.68Zm2.305 0c0 2.238-1.764 4.06-3.935 4.06-2.17 0-3.932-1.822-3.932-4.06 0-2.24 1.762-4.061 3.932-4.061s3.935 1.821 3.935 4.062Zm-.06 6.396a7.29 7.29 0 0 1-2.283.977l2.2 2.269c.45.463.45 1.218 0 1.682a1.123 1.123 0 0 1-1.63 0l-2.162-2.23-2.16 2.23c-.227.232-.522.349-.817.349-.295 0-.587-.117-.814-.35a1.218 1.218 0 0 1 0-1.681l2.2-2.269a7.292 7.292 0 0 1-2.284-.977 1.213 1.213 0 0 1-.363-1.64 1.127 1.127 0 0 1 1.589-.375 4.866 4.866 0 0 0 5.296 0 1.13 1.13 0 0 1 1.592.375c.338.556.175 1.29-.363 1.64Z" fill="#030A1A"/></g></symbol><symbol id="reddit" viewBox="0 0 25 25"><g fill="none"><path fill-rule="evenodd" clip-rule="evenodd" d="M0 12.5C0 5.597 5.597 0 12.5 0S25 5.597 25 12.5 19.403 25 12.5 25 0 19.403 0 12.5Zm12.72-6.393a1.495 1.495 0 0 1 1.13-.551c.72 0 1.204.492 1.453.818l.106.14c.07.093.122.165.164.202.061.055.078.057.17.057v1.218c-.326 0-.626-.15-.828-.323-.18-.154-.3-.312-.401-.445a10.716 10.716 0 0 0-.038-.05l-.062-.082c-.168-.224-.24-.318-.563-.318-.167 0-.239.05-.338.172-.099.12-.192.342-.27.646-.125.486-.169 1.13-.186 1.75a7.313 7.313 0 0 1 3.31 1.028c.382-.32.842-.5 1.283-.494.503.004.98.22 1.334.665.678.85.6 2.238-.185 3.064.048.254.084.516.084.78 0 2.794-2.858 5.06-6.383 5.06s-6.383-2.264-6.383-5.06c0-.264.036-.526.084-.78-.785-.826-.863-2.214-.185-3.064a1.697 1.697 0 0 1 1.334-.665c.44-.005.901.173 1.283.494a7.317 7.317 0 0 1 3.327-1.027c.012-.673.065-1.42.236-2.093.108-.419.255-.816.524-1.142Zm3.123 1.275c0-.946.68-1.712 1.52-1.712s1.52.766 1.52 1.712c0 .947-.68 1.712-1.52 1.712s-1.52-.765-1.52-1.712Zm2.5 0c0-.609-.44-1.103-.98-1.103s-.98.494-.98 1.103.44 1.104.98 1.104.98-.495.98-1.104Zm-.321 7.002c0-2.215-2.531-4.09-5.522-4.09s-5.522 1.875-5.522 4.09c0 2.216 2.531 4.09 5.522 4.09s5.522-1.874 5.522-4.09Zm-10.2-3.425a1.075 1.075 0 0 0-.455-.114.877.877 0 0 0-.71.342c-.249.312-.304.9-.101 1.37a4.986 4.986 0 0 1 1.266-1.598Zm10.52.228a.877.877 0 0 0-.709-.342c-.15.002-.306.04-.456.114.543.464.974.997 1.267 1.598.203-.47.148-1.058-.101-1.37ZM9.36 13.47c0-.608.44-1.103.98-1.103s.979.495.979 1.103c0 .61-.44 1.104-.98 1.104s-.979-.495-.979-1.104Zm4.323 0c0-.608.44-1.103.98-1.103s.979.495.979 1.103c0 .61-.44 1.104-.98 1.104s-.979-.495-.979-1.104ZM12.5 17.694c-1.277 0-2.34-.777-2.685-1.579.625.454 1.594.761 2.685.761s2.077-.307 2.702-.761c-.344.802-1.425 1.58-2.702 1.58Z" fill="#030A1A"/></g></symbol><symbol id="vk" viewBox="0 0 25 25"><g fill="none"><path fill-rule="evenodd" clip-rule="evenodd" d="M0 12.5C0 5.597 5.597 0 12.5 0S25 5.597 25 12.5 19.403 25 12.5 25 0 19.403 0 12.5Zm14.64 3.22c-.338-.393-.65-.755-.917-.668-.448.143-.433 1.12-.433 1.12s.004.209-.1.32c-.11.12-.328.144-.328.144h-.72s-1.589.098-2.987-1.375c-1.526-1.605-2.873-4.792-2.873-4.792s-.077-.208.007-.309c.095-.114.354-.121.354-.121l1.72-.011s.162.027.277.113c.098.072.151.204.151.204s.278.71.645 1.353c.719 1.257 1.053 1.53 1.298 1.396.356-.195.25-1.775.25-1.775s.005-.573-.18-.828c-.145-.198-.415-.255-.535-.272-.096-.013.062-.239.268-.342.31-.153.857-.162 1.502-.153.504.005.649.036.847.085.456.111.441.469.41 1.24-.008.23-.019.497-.019.805 0 .07-.002.145-.004.221-.01.394-.023.845.233 1.013.133.086.455.013 1.261-1.372a10.7 10.7 0 0 0 .67-1.425c.068-.184.217-.238.394-.239l1.811-.012s.544-.065.633.185c.092.259-.204.868-.943 1.865-.703.946-1.044 1.294-1.012 1.602.023.224.245.427.67.826.894.839 1.13 1.278 1.187 1.381a.648.648 0 0 0 .01.018c.397.668-.444.72-.444.72l-1.608.023s-.347.068-.8-.247c-.239-.165-.472-.436-.694-.693Z" fill="#030A1A"/></g></symbol></svg>